All The Episodes of Mirai Nikki Uncensored (Ep 1-26) at 480p Video Quality :)

Please seed after you download.

--------------------------------------------------------------------------------

Cover
------
      
http://img442.imageshack.us/img442/5519/mirainikkicursator.jpg

---------------------------------------------------------------------------------

Info
---------------------------------------------------------------------------------

Torrent Statistics
-------------------
        
http://torrent-stats.info/0dd4/1e027ee8.png

---------------------------------------------------------------------------------

General
--------

Format                                   : MPEG-4
Format profile                           : Base Media
Codec ID                                 : isom
File size                                : 64.4 MiB
Duration                                 : 25mn 20s
Overall bit rate mode                    : Variable
Overall bit rate                         : 356 Kbps
Encoded date                             : UTC 2012-09-02 02:53:08
Tagged date                              : UTC 2012-09-02 02:53:08

Video
---------------------------------------

ID                                       : 1
Format                                   : AVC
Format/Info                              : Advanced Video Codec
Format profile                           : High@L4.0
Format settings, CABAC                   : Yes
Format settings, ReFrames                : 10 frames
Codec ID                                 : avc1
Codec ID/Info                            : Advanced Video Coding
Duration                                 : 25mn 19s
Bit rate mode                            : Variable
Bit rate                                 : 321 Kbps
Maximum bit rate                         : 4 459 Kbps
Width                                    : 848 pixels
Height                                   : 480 pixels
Display aspect ratio                     : 16:9
Frame rate mode                          : Constant
Frame rate                               : 23.976 fps
Color space                              : YUV
Chroma subsampling                       : 4:2:0
Bit depth                                : 8 bits
Scan type                                : Progressive
Bits/(Pixel*Frame)                       : 0.033
Stream size                              : 58.1 MiB (90%)
Writing library                          : x264 core 125 r2208 d9d2288

Audio
----------------------------------

ID                                       : 2
Format                                   : AAC
Format/Info                              : Advanced Audio Codec
Format profile                           : HE-AACv2 / HE-AAC / LC
Codec ID                                 : 40
Duration                                 : 25mn 20s
Bit rate mode                            : Variable
Bit rate                                 : 32.0 Kbps
Maximum bit rate                         : 37.5 Kbps
Channel(s)                               : 2 channels / 1 channel / 1 channel
Channel positions                        : Front: L R / Front: C / Front: C
Sampling rate                            : 48.0 KHz / 48.0 KHz / 24.0 KHz
Compression mode                         : Lossy
Delay relative to video                  : 83ms
Stream size                              : 5.80 MiB (9%)
Encoded date                             : UTC 2012-09-02 02:53:08
Tagged date                              : UTC 2012-09-02 02:53:08


----------------------------------------------------------------------------------

Screenshots
----------------------------------------------------------------------------------
                       
http://img266.imageshack.us/img266/8914/mirainikki1.png
                       
http://img541.imageshack.us/img541/7223/mirainikki2.png
                       
http://img12.imageshack.us/img12/3262/mirainikki3.png
                       
http://img521.imageshack.us/img521/8619/mirainikki4.png
                       
http://img688.imageshack.us/img688/3994/mirainikki5.png
 

----------------------------------------------------------------------------------

Story
----------------------------------------------------------------------------------

This psychological thriller, based on the manga written and illustrated by Sakae Esuno, is about Yuki, a loner who's not very good with people. He prefers to write a diary on his cell phone and talk to his imaginary friend, Deus Ex Machina ΓÇô The God of Time and Space. However, Yuki soon learns that Deus is more than a figment of his imagination when he makes Yuki participate in a battle royale with eleven others. The contestants are given special diaries that can predict the future, each diary possessing unique features that give it both advantages and disadvantages. Within the next 90 days, the contestants must try to survive until there is only one left standing. The winner will become the new God of Time and Space.

----------------------------------------------------------------------------------

Thank you for downloading. 

Enjoy Watching :)		
--------------------------------------------------------------------------------
and Email
------------------
(Add .com)

Cursator@ymail.com 

Thank you :)		
					